 <svg width="16" height="16" viewBox="0 0 16 16" fill="none" xmlns="http://www.w3.org/2000/svg">
<path d="M12.1046 11.2549L11.3133 12.0375C10.7301 12.6099 9.9733 13.3459 9.04274 14.2456C8.46124 14.8078 7.53869 14.8077 6.95728 14.2454L4.62989 11.9815C4.33738 11.6943 4.09253 11.4521 3.8953 11.2549C1.62836 8.98792 1.62836 5.31248 3.8953 3.04554C6.16224 0.778602 9.83768 0.778602 12.1046 3.04554C14.3716 5.31248 14.3716 8.98792 12.1046 11.2549ZM9.66676 7.33333C9.66676 6.41279 8.92051 5.66653 7.99996 5.66653C7.07941 5.66653 6.33316 6.41279 6.33316 7.33333C6.33316 8.25388 7.07941 9.00013 7.99996 9.00013C8.92051 9.00013 9.66676 8.25388 9.66676 7.33333Z" fill="#46C578"/>
</svg>
